<svg width="40" height="40" fill="none" xmlns="http://www.w3.org/2000/svg"><circle cx="20" cy="20" r="20" fill="#33373E"/><path d="M22.55 12.875c-.178.32-.338.65-.476.988a13.17 13.17 0 0 0-4.115 0 9.113 9.113 0 0 0-.476-.988c-1.284.22-2.533.612-3.71 1.168a15.57 15.57 0 0 0-2.696 10.413 14.912 14.912 0 0 0 4.555 2.327c.374-.494.707-1.017.997-1.563a8.668 8.668 0 0 1-1.536-.746c.133-.089.26-.188.377-.297a10.476 10.476 0 0 0 9.092 0c.126.108.252.207.378.297a9.738 9.738 0 0 1-1.537.755c.279.559.603 1.094.97 1.599A14.772 14.772 0 0 0 28.92 24.5a15.471 15.471 0 0 0-2.695-10.413 14.454 14.454 0 0 0-3.675-1.213Zm-5.516 9.479a1.743 1.743 0 0 1-1.618-1.797 1.734 1.734 0 0 1 1.618-1.797 1.734 1.734 0 0 1 1.617 1.797 1.734 1.734 0 0 1-1.617 1.797Zm5.965 0a1.743 1.743 0 0 1-1.617-1.797 1.734 1.734 0 0 1 1.617-1.797 1.725 1.725 0 0 1 1.617 1.797A1.725 1.725 0 0 1 23 22.354Z" fill="#121418"/></svg>