<svg width="40" height="40" fill="none" xmlns="http://www.w3.org/2000/svg"><circle cx="20" cy="20" r="20" fill="#33373E"/><path d="M20.001 11A8.993 8.993 0 0 0 11 19.993c0 3.93 2.52 7.27 6.029 8.496.472.119.4-.217.4-.446v-1.559c-2.729.32-2.84-1.486-3.022-1.787-.37-.632-1.245-.793-.984-1.094.622-.32 1.255.08 1.989 1.164.53.786 1.567.654 2.091.523.115-.473.36-.895.698-1.223-2.827-.507-4.006-2.232-4.006-4.283 0-.996.328-1.91.972-2.649-.41-1.216.038-2.258.098-2.413 1.169-.104 2.383.837 2.478.911.663-.179 1.422-.273 2.27-.273.853 0 1.613.098 2.282.28.228-.174 1.354-.982 2.44-.883.058.154.497 1.172.11 2.372.652.74.984 1.663.984 2.66 0 2.056-1.187 3.784-4.022 4.282a2.564 2.564 0 0 1 .766 1.83v2.262c.016.181 0 .36.302.36C26.436 27.323 29 23.96 29 19.995 29 15.024 24.97 11 20.001 11Z" fill="#121418"/></svg>