<svg width="40" height="40" fill="none" xmlns="http://www.w3.org/2000/svg"><circle cx="20" cy="20" r="20" fill="#33373E"/><path d="M13.456 12.005A1.463 1.463 0 0 0 12 13.481V26.5a1.5 1.5 0 0 0 1.5 1.5h13a1.5 1.5 0 0 0 1.5-1.5V13.515c0-.827-.663-1.498-1.49-1.5-3.036-.008-9.917-.023-13.054-.01ZM25.12 15.84l-.816.8a.245.245 0 0 0-.092.233v5.887c-.014.09.02.18.092.234l.8.8v.178h-4.016v-.17l.826-.82c.082-.085.082-.11.082-.234v-4.764l-2.3 5.967h-.31l-2.676-5.967v4a.553.553 0 0 0 .15.46l1.076 1.331v.178H14.88v-.178l1.075-1.332a.536.536 0 0 0 .14-.458v-4.625a.402.402 0 0 0-.13-.342l-.956-1.178v-.178h2.97l2.293 5.146 2.018-5.142h2.83v.174Z" fill="#121418"/></svg>