<svg width="1400" height="256" fill="none" xmlns="http://www.w3.org/2000/svg"><mask id="d" fill="#fff"><path d="M0 16C0 7.163 7.163 0 16 0h1368c8.84 0 16 7.163 16 16v224c0 8.837-7.16 16-16 16H16c-8.837 0-16-7.163-16-16V16Z"/></mask><path d="M0 16C0 7.163 7.163 0 16 0h1368c8.84 0 16 7.163 16 16v224c0 8.837-7.16 16-16 16H16c-8.837 0-16-7.163-16-16V16Z" fill="url(#a)"/><path d="M0 16C0 7.163 7.163 0 16 0h1102L972.97 210H0V16Z" fill="url(#b)"/><path d="M0 16C0 6.611 7.611-1 17-1h1366c9.39 0 17 7.611 17 17 0-8.284-7.16-15-16-15H16C7.163 1 0 7.716 0 16Zm1400 240H0h1400ZM0 256V0v256ZM1400 0v256V0Z" fill="url(#c)" mask="url(#d)"/><defs><linearGradient id="a" x1="0" y1="0" x2="559.485" y2="848.236" gradientUnits="userSpaceOnUse"><stop stop-color="#3CEAAA"/><stop offset=".771" stop-color="#5C72FF"/></linearGradient><linearGradient id="b" x1="209.709" y1="0" x2="209.709" y2="210" gradientUnits="userSpaceOnUse"><stop stop-color="#fff" stop-opacity=".07"/><stop offset="1" stop-color="#fff" stop-opacity="0"/></linearGradient><linearGradient id="c" x1="1374.63" y1="0" x2="21.875" y2="0" gradientUnits="userSpaceOnUse"><stop stop-color="#fff" stop-opacity="0"/><stop offset=".16" stop-color="#fff" stop-opacity=".5"/><stop offset=".838" stop-color="#fff" stop-opacity=".5"/><stop offset="1" stop-color="#fff" stop-opacity="0"/></linearGradient></defs></svg>