<svg width="40" height="40" fill="none" xmlns="http://www.w3.org/2000/svg"><circle cx="20" cy="20" r="20" fill="#33373E"/><path d="M28.625 14.8a7.088 7.088 0 0 1-2.032.558 3.548 3.548 0 0 0 1.556-1.959 7.066 7.066 0 0 1-2.248.859 3.54 3.54 0 0 0-6.03 3.228 10.05 10.05 0 0 1-7.295-3.698 3.54 3.54 0 0 0 1.095 4.725 3.53 3.53 0 0 1-1.602-.442v.045a3.54 3.54 0 0 0 2.839 3.47 3.565 3.565 0 0 1-1.599.061 3.54 3.54 0 0 0 3.307 2.457 7.102 7.102 0 0 1-5.241 1.466 10.01 10.01 0 0 0 5.424 1.59c6.511 0 10.07-5.392 10.07-10.069 0-.152-.003-.305-.01-.457.692-.5 1.29-1.12 1.764-1.83l.002-.003Z" fill="#121418"/></svg>