<svg width="32" height="32" fill="none" xmlns="http://www.w3.org/2000/svg"><rect width="32" height="32" rx="8" fill="#7124F0"/><path fill-rule="evenodd" clip-rule="evenodd" d="M25.374 11.518v1.059a.583.583 0 0 1-.29.504l-3.401 1.968L24.72 16.8a1.308 1.308 0 0 1 .653 1.135v2.82a1.311 1.311 0 0 1-.653 1.135l-7.99 4.595a1.303 1.303 0 0 1-1.307 0l-2.611-1.513a.29.29 0 0 1 0-.504l8.633-4.981a.146.146 0 0 0 0-.253L18.24 17.38a.58.58 0 0 0-.58 0l-8.775 5.063a.434.434 0 0 1-.435 0l-.993-.57a1.308 1.308 0 0 1-.657-1.137v-1.154a.437.437 0 0 1 .218-.379l12.575-7.24a.146.146 0 0 0 0-.253l-3.21-1.862a.58.58 0 0 0-.58 0l-8.561 4.938a.29.29 0 0 1-.435-.252v-3.03a1.312 1.312 0 0 1 .656-1.135l7.987-4.595a1.303 1.303 0 0 1 1.302 0l7.972 4.61a1.307 1.307 0 0 1 .65 1.134Z" fill="#E5E5E5"/></svg>