<svg width="32" height="32" fill="none" xmlns="http://www.w3.org/2000/svg"><g clip-path="url(#a)"><g clip-path="url(#b)"><path d="M16 31.11c8.346 0 15.111-6.765 15.111-15.11C31.111 7.654 24.346.889 16 .889S.889 7.654.889 15.999c0 8.346 6.765 15.112 15.111 15.112Z" fill="#1B53E4"/><path d="M16 29.188c7.283 0 13.188-5.905 13.188-13.188 0-7.284-5.905-13.188-13.188-13.188C8.716 2.812 2.812 8.716 2.812 16c0 7.283 5.904 13.188 13.188 13.188Z" fill="#1B53E4"/><path fill-rule="evenodd" clip-rule="evenodd" d="M6.733 15.984a9.25 9.25 0 1 0 18.499 0 9.25 9.25 0 0 0-18.499 0Zm7.478-2.982c-.667 0-1.209.541-1.209 1.209v3.543c0 .667.542 1.208 1.21 1.208h3.542c.668 0 1.21-.54 1.21-1.208V14.21c0-.668-.542-1.21-1.21-1.21h-3.543Z" fill="#fff"/></g></g><defs><clipPath id="a"><path fill="#fff" d="M0 0h32v32H0z"/></clipPath><clipPath id="b"><path fill="#fff" transform="translate(.889 .889)" d="M0 0h30.222v30.222H0z"/></clipPath></defs></svg>