<svg width="32" height="32" fill="none" xmlns="http://www.w3.org/2000/svg"><path d="M6.551 10.054c5.219-5.11 13.68-5.11 18.898 0l.628.615c.26.256.26.67 0 .925l-2.148 2.104a.34.34 0 0 1-.473 0l-.864-.846c-3.64-3.565-9.543-3.565-13.184 0l-.925.906a.34.34 0 0 1-.473 0l-2.148-2.104a.645.645 0 0 1 0-.925l.69-.675Zm23.341 4.35 1.912 1.873c.261.255.261.67 0 .925l-8.622 8.441a.678.678 0 0 1-.944 0l-6.12-5.99a.17.17 0 0 0-.236 0l-6.12 5.99a.678.678 0 0 1-.944 0L.196 17.203a.644.644 0 0 1 0-.926l1.912-1.872a.678.678 0 0 1 .945 0l6.12 5.992a.17.17 0 0 0 .235 0l6.12-5.992a.678.678 0 0 1 .944 0l6.12 5.992a.17.17 0 0 0 .236 0l6.12-5.992a.678.678 0 0 1 .944 0Z" fill="#3B99FC"/></svg>