<svg width="32" height="32" fill="none" xmlns="http://www.w3.org/2000/svg"><g clip-path="url(#a)" stroke-width=".25" stroke-linecap="round" stroke-linejoin="round"><path d="m28.816 2.667-11.112 8.222 2.066-4.846 9.046-3.376Z" fill="#E17726" stroke="#E17726"/><path d="m3.185 2.667 11.013 8.298-1.968-4.922-9.045-3.376ZM24.814 21.73l-2.956 4.517 6.33 1.743 1.814-6.16-5.188-.1ZM2.009 21.83l1.802 6.16 6.32-1.743-2.946-4.517-5.176.1Z" fill="#E27625" stroke="#E27625"/><path d="m9.79 14.1-1.758 2.654 6.264.285-.208-6.742L9.79 14.1ZM22.21 14.101l-4.364-3.88-.142 6.818 6.264-.285L22.21 14.1ZM10.131 26.247l3.792-1.83-3.264-2.544-.528 4.374ZM18.078 24.416l3.78 1.831-.516-4.374-3.264 2.543Z" fill="#E27625" stroke="#E27625"/><path d="m21.858 26.247-3.78-1.83.307 2.455-.033 1.042 3.506-1.667ZM10.131 26.247l3.518 1.667-.022-1.042.296-2.455-3.792 1.83Z" fill="#D5BFB2" stroke="#D5BFB2"/><path d="m13.714 20.25-3.144-.92 2.22-1.02.924 1.94ZM18.286 20.25l.923-1.94 2.232 1.02-3.155.92Z" fill="#233447" stroke="#233447"/><path d="m10.131 26.247.55-4.517-3.495.1 2.945 4.417ZM21.32 21.73l.538 4.517 2.956-4.418-3.495-.099ZM23.968 16.753l-6.264.285.582 3.212.923-1.94 2.232 1.02 2.527-2.577ZM10.57 19.33l2.22-1.02.924 1.94.582-3.212-6.264-.285 2.539 2.576Z" fill="#CC6228" stroke="#CC6228"/><path d="m8.032 16.753 2.627 5.12-.088-2.544-2.54-2.576ZM21.44 19.33l-.098 2.543 2.627-5.12-2.528 2.576ZM14.296 17.038l-.582 3.212.736 3.794.165-5-.319-2.006ZM17.704 17.038l-.308 1.996.154 5.01.736-3.794-.582-3.212Z" fill="#E27525" stroke="#E27525"/><path d="m18.286 20.25-.736 3.794.527.372 3.265-2.543.099-2.543-3.155.92ZM10.57 19.33l.088 2.543 3.264 2.543.528-.372-.736-3.793-3.144-.921Z" fill="#F5841F" stroke="#F5841F"/><path d="m18.353 27.913.032-1.04-.285-.242H13.9l-.274.241.021 1.041-3.517-1.666 1.231 1.009 2.495 1.72h4.276l2.506-1.72 1.22-1.009-3.506 1.666Z" fill="#C0AC9D" stroke="#C0AC9D"/><path d="m18.077 24.416-.527-.372h-3.1l-.527.372-.297 2.456.275-.241h4.198l.286.241-.308-2.456Z" fill="#161616" stroke="#161616"/><path d="m29.288 11.426.935-4.539-1.407-4.22-10.738 7.948L22.21 14.1l5.836 1.699 1.286-1.502-.56-.406.89-.81-.681-.527.89-.68-.583-.45ZM1.778 6.887l.945 4.539-.604.45.9.679-.68.526.89.811-.56.406L3.953 15.8l5.836-1.7 4.133-3.485L3.185 2.667l-1.407 4.22Z" fill="#763E1A" stroke="#763E1A"/><path d="m28.046 15.8-5.836-1.7 1.759 2.654-2.627 5.12 3.473-.044h5.188l-1.957-6.03ZM9.79 14.1l-5.836 1.7-1.945 6.03h5.176l3.474.043-2.627-5.12 1.758-2.652ZM17.703 17.039l.374-6.424 1.693-4.572h-7.54l1.692 4.572.374 6.424.143 2.017.011 4.988h3.1l.01-4.988.143-2.017Z" fill="#F5841F" stroke="#F5841F"/></g><defs><clipPath id="a"><path fill="#fff" transform="translate(1.778 2.667)" d="M0 0h28.445v26.31H0z"/></clipPath></defs></svg>