<svg width="32" height="32" fill="none" xmlns="http://www.w3.org/2000/svg"><g clip-path="url(#a)"><mask id="b" style="mask-type:alpha" maskUnits="userSpaceOnUse" x="0" y="0" width="32" height="32"><path d="M24 0H8a8 8 0 0 0-8 8v16a8 8 0 0 0 8 8h16a8 8 0 0 0 8-8V8a8 8 0 0 0-8-8Z" fill="#C4C4C4"/></mask><g mask="url(#b)"><path d="M32.547 0H-.843v32h33.39V0Z" fill="#2980FE"/><mask id="c" style="mask-type:luminance" maskUnits="userSpaceOnUse" x="5" y="8" width="24" height="16"><path d="M28.014 8.656H5.25v14.688h22.764V8.656Z" fill="#fff"/></mask><g mask="url(#c)"><path d="M12.712 13.708h.005c-.005-.025-.005-.054-.005-.078v.078Z" fill="#29AEFF"/><path d="M20.863 14.485h-4.511v8.142c0 .385.31.696.695.696h3.12a.695.695 0 0 0 .696-.696v-8.142ZM14.174 8.656H5.946a.695.695 0 0 0-.696.696v2.825c0 .385.311.696.696.696h2.648V22.648c0 .385.312.696.696.696h2.964a.695.695 0 0 0 .696-.696V12.873h1.212a2.11 2.11 0 0 0 2.108-2.109 2.092 2.092 0 0 0-2.096-2.108Z" fill="#fff"/><path d="M20.867 14.485v5.682a5.823 5.823 0 0 0 1.183.147h.04v-4.519a1.312 1.312 0 0 1-1.223-1.31Z" fill="url(#d)"/><path d="M22.18 8.656a5.832 5.832 0 0 0-1.313 11.511v-5.682c0-.724.59-1.314 1.314-1.314.724 0 1.314.59 1.314 1.314A1.31 1.31 0 0 1 22.18 15.8v4.516c.114 0 .225-.005.335-.009a5.833 5.833 0 0 0 5.494-5.82 5.826 5.826 0 0 0-5.83-5.83Z" fill="#fff"/><path d="M22.18 20.315v-4.516c-.032 0-.06 0-.093-.004v4.52h.094Z" fill="#fff"/></g></g></g><defs><linearGradient id="d" x1="22.183" y1="17.401" x2="20.867" y2="17.401" gradientUnits="userSpaceOnUse"><stop stop-color="#fff"/><stop offset=".967" stop-color="#fff" stop-opacity=".323"/><stop offset="1" stop-color="#fff" stop-opacity=".3"/></linearGradient><clipPath id="a"><path fill="#fff" d="M0 0h32v32H0z"/></clipPath></defs></svg>