<svg width="32" height="32" fill="none" xmlns="http://www.w3.org/2000/svg"><path d="M31.101 14.152c-1.729 8.048-7.979 12.581-14.03 13.803-2.196.443-4.459.425-6.648-.055-4.874-1.072-8.843-4.424-9.768-9.296-1.097-5.781 2.308-8.74 5.107-9.242 2.959-.577 5.612 1.174 6.097 3.603.412 2.3-.944 3.535-1.995 3.725-.437.109-.898.04-1.286-.192a1.766 1.766 0 0 1-.795-1.05c-.166-.902.18-1.038 0-1.98a1.868 1.868 0 0 0-.479-1.005 2.042 2.042 0 0 0-2.2-.346c-.665.244-2.208 1.174-1.849 4.071a4.34 4.34 0 0 0 .592 1.744c.256.403.562.77.91 1.093a6.14 6.14 0 0 0 2.58 1.353 6.063 6.063 0 0 0 2.9.004 7.963 7.963 0 0 0 1.928-.645c2.76-1.357 4.401-4.248 4.215-7.79-.019-.216.01-.435.087-.638.194-.4.44-.772.731-1.106a19.07 19.07 0 0 1 8.75-5.232 13.468 13.468 0 0 1 4.655-.495c.292 0 .531.122.585.394.08.434.126.882.172 1.357.33 2.639.242 5.315-.259 7.925Z" fill="url(#a)"/><defs><linearGradient id="a" x1="28.86" y1="2.386" x2="5.008" y2="25.678" gradientUnits="userSpaceOnUse"><stop stop-color="#11C4D1"/><stop offset="1" stop-color="#0062AD"/></linearGradient></defs></svg>